<svg xmlns="http://www.w3.org/2000/svg" xmlns:xlink="http://www.w3.org/1999/xlink" width="180" zoomAndPan="magnify" viewBox="0 0 135 51.749998" height="69" preserveAspectRatio="xMidYMid meet" version="1.0"><defs><clipPath id="2dc6d32d7a"><path d="M 0.324219 0 L 134.359375 0 L 134.359375 50.78125 L 0.324219 50.78125 Z M 0.324219 0 " clip-rule="nonzero"/></clipPath></defs><g clip-path="url(#2dc6d32d7a)"><path fill="#092442" d="M 113.152344 50.753906 C 132.195312 50.753906 134.3125 48.636719 134.3125 29.59375 L 134.3125 21.132812 C 134.3125 2.089844 132.195312 -0.0273438 113.152344 -0.0273438 L 104.691406 -0.0273438 C 85.648438 -0.0273438 83.53125 2.089844 83.53125 21.132812 L 83.53125 29.59375 C 83.53125 48.636719 85.648438 50.753906 104.691406 50.753906 Z M 115.269531 40.175781 L 102.574219 44.40625 L 102.574219 10.550781 L 115.269531 6.320312 Z M 20.003906 33.75 L 22.710938 32.847656 L 22.710938 44.410156 L 20.003906 44.410156 Z M 14.617188 44.410156 L 17.320312 44.410156 L 17.320312 27.503906 L 14.617188 27.503906 Z M 9.226562 32.847656 L 11.929688 32.847656 L 11.929688 44.40625 L 9.226562 44.40625 L 9.226562 42.722656 C 8.492188 44.042969 7.101562 44.699219 5.128906 44.699219 C 2.054688 44.699219 0.296875 42.945312 0.296875 38.628906 C 0.296875 34.3125 2.054688 32.554688 5.128906 32.554688 C 7.105469 32.554688 8.496094 33.210938 9.226562 34.53125 Z M 9.226562 38.332031 C 9.226562 36.066406 8.421875 35.1875 6.078125 35.1875 C 3.734375 35.1875 3.003906 36.0625 3.003906 38.332031 L 3.003906 38.917969 C 3.003906 41.1875 3.808594 42.066406 6.078125 42.066406 C 8.347656 42.066406 9.226562 41.1875 9.226562 38.917969 Z M 68.203125 32.847656 L 70.835938 32.847656 L 70.835938 44.40625 L 68.203125 44.40625 L 68.203125 42.722656 C 67.398438 44.042969 66.007812 44.699219 64.03125 44.699219 C 60.957031 44.699219 59.273438 42.945312 59.273438 38.628906 C 59.273438 34.3125 60.957031 32.554688 64.03125 32.554688 C 66.007812 32.554688 67.398438 33.210938 68.203125 34.53125 Z M 68.203125 38.332031 C 68.128906 36.066406 67.324219 35.1875 65.054688 35.1875 C 62.785156 35.1875 61.90625 36.0625 61.90625 38.332031 L 61.90625 38.917969 C 61.90625 41.1875 62.785156 42.066406 65.054688 42.066406 C 67.324219 42.066406 68.128906 41.1875 68.203125 38.917969 Z M 52.613281 32.554688 C 50.714844 32.554688 49.46875 33.285156 48.882812 34.675781 C 48.296875 33.285156 47.054688 32.554688 45.148438 32.554688 C 43.613281 32.554688 42.445312 33.066406 41.785156 34.089844 L 41.785156 32.847656 L 39.148438 32.847656 L 39.148438 44.410156 L 41.785156 44.410156 L 41.785156 37.601562 C 41.785156 35.847656 42.441406 35.1875 44.199219 35.1875 C 45.953125 35.1875 46.539062 35.847656 46.539062 37.601562 L 46.539062 44.410156 L 49.246094 44.410156 L 49.246094 37.601562 C 49.246094 35.847656 49.832031 35.1875 51.589844 35.1875 C 53.347656 35.1875 54.003906 35.847656 54.003906 37.601562 L 54.003906 44.410156 L 56.636719 44.410156 L 56.636719 36.578125 C 56.636719 34.015625 55.175781 32.554688 52.613281 32.554688 Z M 20.003906 31.53125 L 22.710938 31.53125 L 22.710938 28.894531 L 20.003906 28.894531 Z M 31.980469 32.554688 C 30.152344 32.554688 28.835938 33.210938 28.105469 34.382812 L 28.105469 32.847656 L 25.398438 32.847656 L 25.398438 44.40625 L 28.105469 44.40625 L 28.105469 38.113281 C 28.105469 35.992188 28.835938 35.1875 30.957031 35.1875 C 33.078125 35.1875 33.886719 35.992188 33.886719 38.113281 L 33.886719 44.40625 L 36.519531 44.40625 L 36.519531 37.089844 C 36.519531 34.164062 34.910156 32.550781 31.980469 32.550781 Z M 39.566406 22.175781 C 37.566406 22.175781 36.46875 21.636719 36.46875 19.078125 C 36.46875 16.519531 37.566406 15.980469 39.566406 15.980469 C 41.566406 15.980469 42.664062 16.519531 42.664062 19.078125 C 42.664062 21.636719 41.566406 22.175781 39.566406 22.175781 Z M 51.128906 12.175781 L 51.128906 20.617188 L 48.347656 20.617188 C 46.101562 20.617188 45.492188 19.84375 45.328125 18.167969 C 44.972656 14.441406 42.398438 13.347656 39.566406 13.347656 C 36.515625 13.347656 33.761719 14.613281 33.761719 19.078125 C 33.761719 19.640625 33.804688 20.152344 33.886719 20.617188 L 17.296875 20.617188 C 15.171875 20.617188 14.367188 20.296875 14.367188 17.6875 L 14.367188 6.324219 L 11.660156 6.324219 L 11.660156 18.640625 C 11.660156 22.054688 13.175781 23.25 16.199219 23.25 L 35.125 23.25 C 36.214844 24.40625 37.84375 24.8125 39.566406 24.8125 C 41.679688 24.8125 43.652344 24.203125 44.664062 22.339844 C 45.367188 22.964844 46.4375 23.25 48.347656 23.25 L 53.835938 23.25 L 53.835938 12.175781 Z M 51.128906 7.664062 L 51.128906 10.371094 L 53.835938 10.371094 L 53.835938 7.664062 Z M 60.714844 28.128906 L 60.714844 26.90625 L 59.761719 26.90625 C 59.105469 26.90625 58.617188 26.6875 58.617188 26.152344 C 58.617188 25.710938 58.957031 25.566406 59.617188 25.566406 L 60.152344 25.566406 L 60.152344 24.371094 L 59.226562 24.371094 C 57.980469 24.371094 57.347656 24.933594 57.347656 25.785156 C 57.347656 26.273438 57.519531 26.636719 57.785156 26.90625 L 56.835938 26.90625 L 56.835938 28.128906 Z M 65.492188 23.246094 L 65.492188 6.320312 L 62.785156 6.320312 L 62.785156 20.613281 L 55.640625 20.613281 L 55.640625 23.246094 L 65.496094 23.246094 Z M 68.128906 6.320312 L 68.128906 23.246094 L 70.835938 23.246094 L 70.835938 6.320312 Z M 10.347656 23.246094 L 10.347656 20.613281 L 8.320312 20.613281 C 6.054688 20.613281 4.6875 19.785156 4.6875 18.125 C 4.6875 17.152344 5.417969 16.613281 6.859375 16.613281 L 8.539062 16.613281 L 8.539062 13.980469 L 6.03125 13.980469 C 3.589844 13.980469 1.980469 15.441406 1.980469 17.589844 C 1.980469 18.832031 2.296875 19.808594 3.003906 20.613281 L 0.296875 20.613281 L 0.296875 23.246094 Z M 57.445312 7.222656 L 60.152344 6.324219 L 60.152344 18.8125 L 57.445312 18.8125 Z M 57.445312 7.222656 " fill-opacity="1" fill-rule="nonzero"/></g></svg>