<svg xmlns="http://www.w3.org/2000/svg" xmlns:xlink="http://www.w3.org/1999/xlink" width="180" zoomAndPan="magnify" viewBox="0 0 135 51.749998" height="69" preserveAspectRatio="xMidYMid meet" version="1.0"><defs><clipPath id="b865c75de5"><path d="M 40.105469 0 L 94.578125 0 L 94.578125 50.78125 L 40.105469 50.78125 Z M 40.105469 0 " clip-rule="nonzero"/></clipPath></defs><g clip-path="url(#b865c75de5)"><path fill="#092442" d="M 73.371094 50.753906 C 92.414062 50.753906 94.53125 48.636719 94.53125 29.59375 L 94.53125 21.132812 C 94.53125 2.089844 92.414062 -0.0273438 73.371094 -0.0273438 L 64.90625 -0.0273438 C 45.863281 -0.0273438 43.75 2.089844 43.75 21.132812 L 43.75 29.59375 C 43.75 48.636719 45.863281 50.753906 64.90625 50.753906 Z M 75.488281 40.175781 L 62.792969 44.40625 L 62.792969 10.550781 L 75.488281 6.320312 Z M -19.777344 33.75 L -17.070312 32.847656 L -17.070312 44.410156 L -19.777344 44.410156 Z M -25.167969 44.410156 L -22.460938 44.410156 L -22.460938 27.503906 L -25.167969 27.503906 Z M -30.558594 32.847656 L -27.851562 32.847656 L -27.851562 44.40625 L -30.558594 44.40625 L -30.558594 42.722656 C -31.289062 44.042969 -32.679688 44.699219 -34.65625 44.699219 C -37.726562 44.699219 -39.484375 42.945312 -39.484375 38.628906 C -39.484375 34.3125 -37.726562 32.554688 -34.65625 32.554688 C -32.679688 32.554688 -31.289062 33.210938 -30.558594 34.53125 Z M -30.558594 38.332031 C -30.558594 36.066406 -31.363281 35.1875 -33.703125 35.1875 C -36.046875 35.1875 -36.777344 36.0625 -36.777344 38.332031 L -36.777344 38.917969 C -36.777344 41.1875 -35.972656 42.066406 -33.703125 42.066406 C -31.4375 42.066406 -30.558594 41.1875 -30.558594 38.917969 Z M 28.417969 32.847656 L 31.054688 32.847656 L 31.054688 44.40625 L 28.417969 44.40625 L 28.417969 42.722656 C 27.613281 44.042969 26.222656 44.699219 24.246094 44.699219 C 21.175781 44.699219 19.492188 42.945312 19.492188 38.628906 C 19.492188 34.3125 21.171875 32.554688 24.246094 32.554688 C 26.222656 32.554688 27.613281 33.210938 28.417969 34.53125 Z M 28.417969 38.332031 C 28.347656 36.066406 27.542969 35.1875 25.273438 35.1875 C 23.003906 35.1875 22.125 36.0625 22.125 38.332031 L 22.125 38.917969 C 22.125 41.1875 23.003906 42.066406 25.273438 42.066406 C 27.542969 42.066406 28.34375 41.1875 28.417969 38.917969 Z M 12.832031 32.554688 C 10.929688 32.554688 9.683594 33.285156 9.101562 34.675781 C 8.515625 33.285156 7.269531 32.554688 5.367188 32.554688 C 3.828125 32.554688 2.660156 33.066406 2 34.089844 L 2 32.847656 L -0.632812 32.847656 L -0.632812 44.410156 L 2 44.410156 L 2 37.601562 C 2 35.847656 2.660156 35.1875 4.414062 35.1875 C 6.171875 35.1875 6.757812 35.847656 6.757812 37.601562 L 6.757812 44.410156 L 9.464844 44.410156 L 9.464844 37.601562 C 9.464844 35.847656 10.050781 35.1875 11.804688 35.1875 C 13.5625 35.1875 14.222656 35.847656 14.222656 37.601562 L 14.222656 44.410156 L 16.855469 44.410156 L 16.855469 36.578125 C 16.855469 34.015625 15.390625 32.554688 12.832031 32.554688 Z M -19.777344 31.53125 L -17.070312 31.53125 L -17.070312 28.894531 L -19.777344 28.894531 Z M -7.800781 32.554688 C -9.628906 32.554688 -10.949219 33.210938 -11.679688 34.382812 L -11.679688 32.847656 L -14.386719 32.847656 L -14.386719 44.40625 L -11.679688 44.40625 L -11.679688 38.113281 C -11.679688 35.992188 -10.945312 35.1875 -8.824219 35.1875 C -6.703125 35.1875 -5.898438 35.992188 -5.898438 38.113281 L -5.898438 44.40625 L -3.265625 44.40625 L -3.265625 37.089844 C -3.265625 34.164062 -4.875 32.550781 -7.800781 32.550781 Z M -0.214844 22.175781 C -2.214844 22.175781 -3.3125 21.636719 -3.3125 19.078125 C -3.3125 16.519531 -2.214844 15.980469 -0.214844 15.980469 C 1.785156 15.980469 2.882812 16.519531 2.882812 19.078125 C 2.882812 21.636719 1.785156 22.175781 -0.214844 22.175781 Z M 11.34375 12.175781 L 11.34375 20.617188 L 8.5625 20.617188 C 6.320312 20.617188 5.707031 19.84375 5.546875 18.167969 C 5.191406 14.441406 2.613281 13.347656 -0.21875 13.347656 C -3.265625 13.347656 -6.023438 14.613281 -6.023438 19.078125 C -6.023438 19.640625 -5.980469 20.152344 -5.894531 20.617188 L -22.488281 20.617188 C -24.609375 20.617188 -25.414062 20.296875 -25.414062 17.6875 L -25.414062 6.324219 L -28.121094 6.324219 L -28.121094 18.640625 C -28.121094 22.054688 -26.609375 23.25 -23.582031 23.25 L -4.660156 23.25 C -3.566406 24.40625 -1.9375 24.8125 -0.21875 24.8125 C 1.894531 24.8125 3.867188 24.203125 4.878906 22.339844 C 5.582031 22.964844 6.65625 23.25 8.5625 23.25 L 14.050781 23.25 L 14.050781 12.175781 Z M 11.34375 7.664062 L 11.34375 10.371094 L 14.050781 10.371094 L 14.050781 7.664062 Z M 20.929688 28.128906 L 20.929688 26.90625 L 19.980469 26.90625 C 19.320312 26.90625 18.832031 26.6875 18.832031 26.152344 C 18.832031 25.710938 19.175781 25.566406 19.832031 25.566406 L 20.371094 25.566406 L 20.371094 24.371094 L 19.441406 24.371094 C 18.199219 24.371094 17.566406 24.933594 17.566406 25.785156 C 17.566406 26.273438 17.734375 26.636719 18.003906 26.90625 L 17.050781 26.90625 L 17.050781 28.128906 Z M 25.710938 23.246094 L 25.710938 6.320312 L 23.003906 6.320312 L 23.003906 20.613281 L 15.859375 20.613281 L 15.859375 23.246094 Z M 28.34375 6.320312 L 28.34375 23.246094 L 31.050781 23.246094 L 31.050781 6.320312 Z M -29.4375 23.246094 L -29.4375 20.613281 L -31.460938 20.613281 C -33.730469 20.613281 -35.09375 19.785156 -35.09375 18.125 C -35.09375 17.152344 -34.363281 16.613281 -32.925781 16.613281 L -31.242188 16.613281 L -31.242188 13.980469 L -33.753906 13.980469 C -36.191406 13.980469 -37.800781 15.441406 -37.800781 17.589844 C -37.800781 18.832031 -37.484375 19.808594 -36.777344 20.613281 L -39.484375 20.613281 L -39.484375 23.246094 L -29.433594 23.246094 Z M 17.660156 7.222656 L 20.367188 6.324219 L 20.367188 18.8125 L 17.660156 18.8125 Z M 17.660156 7.222656 " fill-opacity="1" fill-rule="nonzero"/></g></svg>